<svg version="1.1" id="Layer_1" xmlns="http://www.w3.org/2000/svg" xmlns:xlink="http://www.w3.org/1999/xlink" x="0"
  y="0" width="496" height="150" xml:space="preserve">
  <style>
    .st2 {
      fill: #5f6368
    }

    .st16 {
      fill: #212121;
      fill-opacity: .02
    }
  </style>
  <path fill="#fff" d="M1.5 1.5h493v147H1.5z" />
  <path d="M494 2v146H2V2h492m1-1H1v148h494V1z" fill="#dadce0" />
  <path class="st2"
    d="M173.133 106.161c-3.897 0-7.166-1.319-9.805-3.959-2.64-2.639-3.959-5.932-3.959-9.879 0-3.946 1.319-7.239 3.959-9.879 2.639-2.639 5.907-3.959 9.805-3.959 3.996 0 7.239 1.443 9.731 4.329l-2.368 2.294c-1.801-2.244-4.255-3.367-7.363-3.367-2.886 0-5.322.975-7.307 2.923-1.986 1.949-2.979 4.502-2.979 7.659 0 3.158.993 5.711 2.979 7.659 1.985 1.949 4.421 2.923 7.307 2.923 3.182 0 5.896-1.282 8.14-3.848l2.368 2.368c-1.209 1.455-2.726 2.608-4.551 3.459-1.826.851-3.811 1.277-5.957 1.277zM190.079 79.077v8.362l-.148 2.516h.148c.493-.863 1.27-1.597 2.331-2.201a6.766 6.766 0 0 1 3.404-.906c2.244 0 3.959.69 5.143 2.071 1.184 1.382 1.776 3.232 1.776 5.551v11.1h-3.404V94.987c0-3.354-1.493-5.032-4.477-5.032-1.406 0-2.553.562-3.441 1.684-.888 1.123-1.332 2.424-1.332 3.903v10.027h-3.404V79.077h3.404zM210.133 105.569h-3.404v-18.13h3.256v2.96h.148c.345-.986 1.054-1.801 2.127-2.442 1.073-.641 2.115-.962 3.126-.962 1.011 0 1.862.148 2.553.444l-1.295 3.182c-.444-.172-1.048-.259-1.813-.259-1.233 0-2.325.487-3.274 1.462-.95.975-1.424 2.251-1.424 3.829v9.916zM220.64 89.603c1.751-1.837 3.983-2.756 6.697-2.756s4.945.919 6.697 2.756c1.751 1.838 2.627 4.139 2.627 6.9 0 2.764-.876 5.063-2.627 6.901-1.752 1.838-3.984 2.756-6.697 2.756s-4.946-.918-6.697-2.756c-1.752-1.838-2.627-4.138-2.627-6.901 0-2.761.875-5.062 2.627-6.9zm2.534 11.655c1.171 1.196 2.559 1.795 4.163 1.795s2.991-.599 4.163-1.795c1.171-1.196 1.757-2.78 1.757-4.755 0-1.973-.586-3.558-1.757-4.754-1.172-1.196-2.559-1.795-4.163-1.795s-2.991.599-4.163 1.795-1.757 2.781-1.757 4.754c0 1.975.586 3.559 1.757 4.755zM239.399 105.569v-18.13h3.256v2.516h.148c.518-.863 1.313-1.597 2.386-2.201 1.073-.604 2.14-.906 3.201-.906 2.812 0 4.723 1.159 5.735 3.478 1.48-2.318 3.59-3.478 6.327-3.478 2.146 0 3.762.685 4.847 2.053 1.086 1.369 1.628 3.226 1.628 5.569v11.1h-3.403V94.987c0-1.825-.333-3.12-.999-3.885s-1.679-1.147-3.034-1.147c-1.332 0-2.437.568-3.312 1.702-.876 1.135-1.313 2.43-1.313 3.885v10.027h-3.404V94.987c0-1.825-.333-3.12-.999-3.885-.665-.765-1.677-1.147-3.034-1.147-1.332 0-2.437.568-3.312 1.702-.876 1.135-1.313 2.43-1.313 3.885v10.027h-3.405zM279.137 106.161c-2.738 0-4.965-.912-6.679-2.738-1.715-1.824-2.571-4.131-2.571-6.919 0-2.639.832-4.908 2.497-6.808s3.793-2.849 6.383-2.849c2.688 0 4.841.876 6.456 2.627s2.424 4.095 2.424 7.029l-.037.63h-14.318c.098 1.825.708 3.269 1.831 4.328 1.122 1.062 2.436 1.592 3.94 1.592 2.442 0 4.095-1.036 4.958-3.108l3.034 1.258c-.592 1.406-1.566 2.584-2.923 3.534-1.358.949-3.023 1.424-4.995 1.424zm4.884-11.84c-.074-1.036-.549-2.022-1.425-2.96-.875-.938-2.177-1.406-3.903-1.406-1.258 0-2.35.396-3.274 1.185s-1.561 1.85-1.905 3.182h10.507zM328.865 79.077l-7.067 26.492h-3.479l-5.697-17.464h-.148l-5.698 17.464h-3.478l-7.363-26.492h3.552l5.588 20.831h.147l5.735-17.279h3.182l5.735 17.279h.147l5.291-20.831h3.553zM337.708 106.161c-2.738 0-4.965-.912-6.679-2.738-1.715-1.824-2.571-4.131-2.571-6.919 0-2.639.832-4.908 2.497-6.808s3.793-2.849 6.383-2.849c2.688 0 4.841.876 6.456 2.627s2.424 4.095 2.424 7.029l-.037.63h-14.318c.098 1.825.708 3.269 1.831 4.328 1.122 1.062 2.436 1.592 3.94 1.592 2.442 0 4.095-1.036 4.958-3.108l3.034 1.258c-.592 1.406-1.566 2.584-2.923 3.534-1.357.949-3.022 1.424-4.995 1.424zm4.884-11.84c-.074-1.036-.549-2.022-1.425-2.96-.875-.938-2.177-1.406-3.903-1.406-1.258 0-2.35.396-3.274 1.185s-1.561 1.85-1.905 3.182h10.507zM358.909 106.161c-1.382 0-2.621-.296-3.719-.888s-1.918-1.332-2.461-2.22h-.147v2.516h-3.256V79.077h3.403v8.362l-.147 2.516h.147c.543-.888 1.363-1.628 2.461-2.22s2.337-.888 3.719-.888c2.343 0 4.366.925 6.067 2.774 1.702 1.851 2.554 4.145 2.554 6.882 0 2.738-.852 5.032-2.554 6.883-1.701 1.85-3.724 2.775-6.067 2.775zm-.555-3.108c1.579 0 2.936-.599 4.07-1.795s1.702-2.78 1.702-4.755c0-1.973-.567-3.558-1.702-4.754s-2.491-1.795-4.07-1.795c-1.604 0-2.966.592-4.088 1.776-1.123 1.184-1.684 2.774-1.684 4.772s.561 3.59 1.684 4.773c1.122 1.186 2.484 1.778 4.088 1.778zM385.733 106.161c-1.924 0-3.805-.629-5.643-1.887s-3.04-3.021-3.607-5.291l3.108-1.258c.37 1.455 1.128 2.683 2.275 3.682s2.436 1.498 3.866 1.498c1.48 0 2.744-.389 3.793-1.165 1.048-.777 1.572-1.832 1.572-3.164 0-1.479-.524-2.62-1.572-3.422-1.049-.802-2.708-1.548-4.977-2.239-2.344-.739-4.12-1.695-5.328-2.867-1.209-1.171-1.812-2.67-1.812-4.495 0-1.899.752-3.553 2.257-4.958 1.504-1.406 3.465-2.109 5.883-2.109 2.244 0 4.07.562 5.476 1.684 1.406 1.123 2.318 2.35 2.738 3.682l-3.108 1.295c-.222-.839-.771-1.615-1.646-2.331-.875-.715-2.004-1.073-3.385-1.073-1.308 0-2.424.364-3.349 1.092s-1.388 1.634-1.388 2.72c0 .986.426 1.819 1.276 2.497.852.679 2.103 1.289 3.756 1.831 1.307.42 2.398.827 3.274 1.222a15.28 15.28 0 0 1 2.664 1.572 6.28 6.28 0 0 1 2.035 2.442c.456.975.685 2.103.685 3.385 0 1.283-.266 2.431-.796 3.441-.531 1.012-1.233 1.812-2.109 2.405a10.513 10.513 0 0 1-2.83 1.351c-1.011.305-2.047.46-3.108.46zM405.048 105.865c-1.899 0-3.349-.505-4.348-1.517s-1.498-2.442-1.498-4.292v-9.51h-3.183v-3.107h3.183v-5.55h3.403v5.55h4.44v3.107h-4.44v9.25c0 1.975.814 2.961 2.442 2.961.616 0 1.134-.099 1.554-.297l1.185 2.924c-.74.321-1.653.481-2.738.481zM411.708 89.603c1.751-1.837 3.983-2.756 6.697-2.756 2.713 0 4.945.919 6.696 2.756 1.752 1.838 2.627 4.139 2.627 6.9 0 2.764-.875 5.063-2.627 6.901-1.751 1.838-3.983 2.756-6.696 2.756-2.714 0-4.946-.918-6.697-2.756-1.752-1.838-2.627-4.138-2.627-6.901 0-2.761.875-5.062 2.627-6.9zm2.534 11.655c1.172 1.196 2.559 1.795 4.163 1.795 1.603 0 2.99-.599 4.162-1.795 1.171-1.196 1.758-2.78 1.758-4.755 0-1.973-.587-3.558-1.758-4.754-1.172-1.196-2.56-1.795-4.162-1.795-1.604 0-2.991.599-4.163 1.795s-1.757 2.781-1.757 4.754c0 1.975.585 3.559 1.757 4.755zM433.87 105.569h-3.403v-18.13h3.256v2.96h.147c.346-.986 1.055-1.801 2.128-2.442 1.073-.641 2.115-.962 3.127-.962 1.011 0 1.861.148 2.553.444l-1.295 3.182c-.444-.172-1.049-.259-1.813-.259-1.233 0-2.325.487-3.274 1.462-.95.975-1.425 2.251-1.425 3.829v9.916zM451.001 106.161c-2.738 0-4.965-.912-6.679-2.738-1.715-1.824-2.571-4.131-2.571-6.919 0-2.639.832-4.908 2.497-6.808s3.793-2.849 6.383-2.849c2.688 0 4.841.876 6.456 2.627s2.424 4.095 2.424 7.029l-.037.63h-14.318c.098 1.825.708 3.269 1.831 4.328 1.122 1.062 2.436 1.592 3.94 1.592 2.442 0 4.095-1.036 4.958-3.108l3.034 1.258c-.592 1.406-1.566 2.584-2.923 3.534-1.357.949-3.022 1.424-4.995 1.424zm4.884-11.84c-.074-1.036-.549-2.022-1.425-2.96-.875-.938-2.177-1.406-3.903-1.406-1.258 0-2.35.396-3.274 1.185s-1.561 1.85-1.905 3.182h10.507z" />
  <g>
    <path class="st2"
      d="M161.336 64.438l7.56-20.048h2.912l7.56 20.048h-2.856l-1.932-5.432h-8.428l-1.96 5.432h-2.856zm5.684-7.84h6.664l-3.276-9.044h-.112l-3.276 9.044zM183.96 64.438l-5.544-13.72h2.8l4.032 10.64h.056l4.088-10.64h2.744l-5.6 13.72h-2.576zM197.876 64.886c-1.456 0-2.674-.42-3.654-1.26-.98-.841-1.47-1.951-1.47-3.332 0-1.493.578-2.665 1.736-3.515 1.157-.849 2.585-1.273 4.284-1.273 1.512 0 2.753.279 3.724.84v-.393c0-1.008-.345-1.814-1.036-2.422-.691-.606-1.54-.91-2.548-.91-.747 0-1.423.178-2.03.532-.607.355-1.022.84-1.246 1.456l-2.352-1.008c.317-.821.942-1.582 1.876-2.282.933-.7 2.166-1.05 3.696-1.05 1.754 0 3.21.514 4.368 1.54 1.157 1.026 1.736 2.474 1.736 4.34v8.288h-2.464v-1.904h-.112c-1.027 1.569-2.53 2.353-4.508 2.353zm.42-2.352c1.064 0 2.03-.396 2.898-1.189s1.302-1.731 1.302-2.814c-.728-.597-1.82-.896-3.276-.896-1.251 0-2.193.271-2.828.812-.635.542-.952 1.176-.952 1.904 0 .672.289 1.204.868 1.596.578.392 1.241.587 1.988.587zM210.672 47.274c-.355.354-.784.532-1.288.532s-.934-.178-1.288-.532c-.355-.354-.532-.784-.532-1.288s.177-.933.532-1.288c.354-.354.784-.532 1.288-.532s.933.178 1.288.532c.354.355.532.784.532 1.288s-.178.934-.532 1.288zm0 17.164h-2.576v-13.72h2.576v13.72zM216.607 64.438h-2.576V44.39h2.576v20.048zM223.944 64.886c-1.456 0-2.674-.42-3.654-1.26-.98-.841-1.47-1.951-1.47-3.332 0-1.493.578-2.665 1.736-3.515 1.157-.849 2.585-1.273 4.284-1.273 1.512 0 2.753.279 3.724.84v-.393c0-1.008-.345-1.814-1.036-2.422-.691-.606-1.54-.91-2.548-.91-.747 0-1.423.178-2.03.532-.607.355-1.022.84-1.246 1.456l-2.352-1.008c.317-.821.942-1.582 1.876-2.282.933-.7 2.166-1.05 3.696-1.05 1.754 0 3.21.514 4.368 1.54 1.157 1.026 1.736 2.474 1.736 4.34v8.288h-2.464v-1.904h-.112c-1.027 1.569-2.53 2.353-4.508 2.353zm.42-2.352c1.064 0 2.03-.396 2.898-1.189s1.302-1.731 1.302-2.814c-.728-.597-1.82-.896-3.276-.896-1.251 0-2.193.271-2.828.812-.635.542-.952 1.176-.952 1.904 0 .672.289 1.204.868 1.596.578.392 1.241.587 1.988.587zM241.191 64.886c-1.045 0-1.983-.225-2.814-.672-.831-.448-1.452-1.009-1.862-1.681h-.112v1.904h-2.464V44.39h2.576v6.328l-.112 1.903h.112c.41-.672 1.031-1.231 1.862-1.68s1.769-.672 2.814-.672c1.773 0 3.304.7 4.592 2.1 1.289 1.4 1.931 3.137 1.931 5.208 0 2.072-.643 3.809-1.931 5.208-1.287 1.401-2.818 2.101-4.592 2.101zm-.42-2.352c1.194 0 2.221-.452 3.08-1.357.858-.905 1.288-2.104 1.288-3.599 0-1.493-.43-2.692-1.288-3.598-.859-.905-1.886-1.358-3.08-1.358-1.213 0-2.245.448-3.094 1.345-.85.896-1.274 2.1-1.274 3.611 0 1.513.424 2.717 1.274 3.612.85.897 1.881 1.344 3.094 1.344zM252.503 64.438h-2.575V44.39h2.575v20.048zM261.716 64.886c-2.072 0-3.757-.69-5.054-2.072-1.298-1.381-1.946-3.126-1.946-5.236 0-1.997.63-3.714 1.89-5.151s2.87-2.156 4.83-2.156c2.034 0 3.663.663 4.886 1.988s1.834 3.099 1.834 5.319l-.027.477h-10.836c.074 1.382.536 2.474 1.386 3.275.849.803 1.843 1.204 2.981 1.204 1.849 0 3.099-.784 3.753-2.352l2.296.952c-.448 1.063-1.186 1.955-2.212 2.674-1.028.718-2.288 1.078-3.781 1.078zm3.696-8.96c-.057-.784-.416-1.53-1.078-2.24-.663-.709-1.648-1.064-2.954-1.064-.952 0-1.778.299-2.479.896s-1.181 1.4-1.441 2.408h7.952zM279.467 47.274c-.354.354-.784.532-1.288.532s-.934-.178-1.288-.532-.532-.784-.532-1.288.178-.933.532-1.288c.354-.354.784-.532 1.288-.532s.934.178 1.288.532c.354.355.532.784.532 1.288s-.178.934-.532 1.288zm0 17.164h-2.576v-13.72h2.576v13.72zM285.29 50.718v1.903h.111c.374-.652.962-1.208 1.765-1.666a5.12 5.12 0 0 1 2.576-.686c1.698 0 2.996.522 3.892 1.568.896 1.045 1.344 2.445 1.344 4.199v8.4h-2.576V56.43c0-2.538-1.129-3.809-3.388-3.809-1.063 0-1.932.425-2.604 1.274s-1.009 1.834-1.009 2.954v7.588h-2.575v-13.72h2.464zM310.097 64.662c-1.438 0-2.534-.382-3.29-1.147-.756-.766-1.134-1.849-1.134-3.248V53.07h-2.408v-2.352h2.408v-4.2h2.576v4.2h3.359v2.352h-3.359v7c0 1.494.616 2.24 1.848 2.24.467 0 .858-.074 1.176-.224l.896 2.212c-.561.243-1.251.364-2.072.364zM316.788 44.39v6.328l-.111 1.903h.111c.374-.652.962-1.208 1.765-1.666a5.12 5.12 0 0 1 2.576-.686c1.698 0 2.996.522 3.892 1.568.896 1.045 1.344 2.445 1.344 4.199v8.4h-2.576V56.43c0-2.538-1.129-3.809-3.388-3.809-1.063 0-1.932.425-2.604 1.274s-1.009 1.834-1.009 2.954v7.588h-2.575V44.39h2.575zM335.604 64.886c-2.072 0-3.757-.69-5.054-2.072-1.298-1.381-1.946-3.126-1.946-5.236 0-1.997.63-3.714 1.89-5.151s2.87-2.156 4.83-2.156c2.034 0 3.663.663 4.886 1.988s1.834 3.099 1.834 5.319l-.027.477h-10.836c.074 1.382.536 2.474 1.386 3.275.849.803 1.843 1.204 2.981 1.204 1.849 0 3.099-.784 3.753-2.352l2.296.952c-.448 1.063-1.186 1.955-2.212 2.674-1.028.718-2.287 1.078-3.781 1.078zm3.697-8.96c-.057-.784-.416-1.53-1.078-2.24-.663-.709-1.648-1.064-2.954-1.064-.952 0-1.778.299-2.479.896s-1.181 1.4-1.441 2.408h7.952z" />
  </g>
  <g>
    <defs>
      <path id="SVGID_1_"
        d="M23.895 27.572v87.667c0 4.133 3.381 7.514 7.514 7.514h95.182c4.133 0 7.514-3.381 7.514-7.514V27.572H23.895zm67.629 20.039H66.476a5.009 5.009 0 0 1-5.01-5.01 5.009 5.009 0 0 1 5.01-5.01h25.048a5.009 5.009 0 0 1 5.01 5.01 5.01 5.01 0 0 1-5.01 5.01z" />
    </defs>
    <clipPath id="SVGID_2_">
      <use xlink:href="#SVGID_1_" overflow="visible" />
    </clipPath>
    <path d="M23.895 27.572h110.211v95.182H23.895V27.572z" clip-path="url(#SVGID_2_)" fill="#eee" />
    <g>
      <defs>
        <path id="SVGID_3_"
          d="M23.895 27.572v87.667c0 4.133 3.381 7.514 7.514 7.514h95.182c4.133 0 7.514-3.381 7.514-7.514V27.572H23.895zm67.629 20.039H66.476a5.009 5.009 0 0 1-5.01-5.01 5.009 5.009 0 0 1 5.01-5.01h25.048a5.009 5.009 0 0 1 5.01 5.01 5.01 5.01 0 0 1-5.01 5.01z" />
      </defs>
      <clipPath id="SVGID_4_">
        <use xlink:href="#SVGID_3_" overflow="visible" />
      </clipPath>
      <path
        d="M91.524 37.591H66.476a5.009 5.009 0 0 0-5.01 5.01 5.009 5.009 0 0 0 5.01 5.01h25.048a5.009 5.009 0 0 0 5.01-5.01 5.01 5.01 0 0 0-5.01-5.01z"
        clip-path="url(#SVGID_4_)" fill="#fff" />
    </g>
    <g>
      <defs>
        <path id="SVGID_5_"
          d="M23.895 27.572v87.667c0 4.133 3.381 7.514 7.514 7.514h95.182c4.133 0 7.514-3.381 7.514-7.514V27.572H23.895zm67.629 20.039H66.476a5.009 5.009 0 0 1-5.01-5.01 5.009 5.009 0 0 1 5.01-5.01h25.048a5.009 5.009 0 0 1 5.01 5.01 5.01 5.01 0 0 1-5.01 5.01z" />
      </defs>
      <clipPath id="SVGID_6_">
        <use xlink:href="#SVGID_5_" overflow="visible" />
      </clipPath>
      <g clip-path="url(#SVGID_6_)">
        <defs>
          <circle id="SVGID_7_" cx="79" cy="115.24" r="47.591" />
        </defs>
        <defs>
          <circle id="SVGID_8_" cx="79" cy="115.24" r="47.591" />
        </defs>
        <defs>
          <circle id="SVGID_9_" cx="79" cy="115.24" r="47.591" />
        </defs>
        <defs>
          <circle id="SVGID_10_" cx="79" cy="115.24" r="47.591" />
        </defs>
        <clipPath id="SVGID_11_">
          <use xlink:href="#SVGID_7_" overflow="visible" />
        </clipPath>
        <clipPath id="SVGID_12_" clip-path="url(#SVGID_11_)">
          <use xlink:href="#SVGID_8_" overflow="visible" />
        </clipPath>
        <clipPath id="SVGID_13_" clip-path="url(#SVGID_12_)">
          <use xlink:href="#SVGID_9_" overflow="visible" />
        </clipPath>
        <clipPath id="SVGID_14_" clip-path="url(#SVGID_13_)">
          <use xlink:href="#SVGID_10_" overflow="visible" />
        </clipPath>
        <path
          d="M38.967 67.649v58.405h21.297L79 93.605h47.591V67.649H38.967zm0 0v58.405h21.297L79 93.605h47.591V67.649H38.967z"
          clip-path="url(#SVGID_14_)" fill="#db4437" />
        <path
          d="M31.409 162.831h45.299l21.028-21.028V126.06l-37.472-.006-28.855-49.488v86.265zm0 0h45.299l21.028-21.028V126.06l-37.472-.006-28.855-49.488v86.265z"
          clip-path="url(#SVGID_14_)" fill="#0f9d58" />
        <path
          d="M79 93.605l18.736 32.449-21.021 36.777h49.877V93.605H79zm0 0l18.736 32.449-21.021 36.777h49.877V93.605H79z"
          clip-path="url(#SVGID_14_)" fill="#ffcd40" />
        <g clip-path="url(#SVGID_14_)">
          <circle cx="79" cy="115.24" r="21.635" fill="#f1f1f1" />
          <circle cx="79" cy="115.24" r="17.308" fill="#4285f4" />
        </g>
        <g>
          <defs>
            <path id="SVGID_15_"
              d="M23.895 27.572v87.667c0 4.133 3.381 7.514 7.514 7.514h95.182c4.133 0 7.514-3.381 7.514-7.514V27.572H23.895zm67.629 20.039H66.476a5.009 5.009 0 0 1-5.01-5.01 5.009 5.009 0 0 1 5.01-5.01h25.048a5.009 5.009 0 0 1 5.01 5.01 5.01 5.01 0 0 1-5.01 5.01z" />
          </defs>
          <clipPath id="SVGID_16_">
            <use xlink:href="#SVGID_15_" overflow="visible" />
          </clipPath>
          <path d="M23.895 27.572h110.211v47.591H23.895V27.572z" clip-path="url(#SVGID_16_)" fill="#212121"
            fill-opacity=".05" />
        </g>
        <path class="st16" d="M23.895 74.537h110.211v.626H23.895v-.626z" />
        <path d="M23.895 75.163h110.211v.626H23.895v-.626z" fill="#fff" fill-opacity=".05" />
        <path class="st16"
          d="M91.524 47.611H66.476a5.001 5.001 0 0 1-4.991-4.696 2.528 2.528 0 0 0-.019.313 5.009 5.009 0 0 0 5.01 5.01h25.048a5.009 5.009 0 0 0 5.01-5.01c0-.106-.006-.207-.019-.313a5.001 5.001 0 0 1-4.991 4.696zM23.895 27.572v.626h110.211v-.626H23.895z" />
        <path
          d="M66.476 37.591h25.048a5.001 5.001 0 0 1 4.991 4.696c.006-.106.019-.207.019-.313a5.009 5.009 0 0 0-5.01-5.01H66.476a5.009 5.009 0 0 0-5.01 5.01c0 .106.006.207.019.313a5.001 5.001 0 0 1 4.991-4.696zm60.115 84.537H31.409c-4.133 0-7.514-3.381-7.514-7.514v.626c0 4.133 3.381 7.514 7.514 7.514h95.182c4.133 0 7.514-3.381 7.514-7.514v-.626c0 4.132-3.381 7.514-7.514 7.514z"
          fill="#231f20" fill-opacity=".1" />
        <radialGradient id="SVGID_17_" cx="91.332" cy="46.354" r="570.079"
          gradientTransform="matrix(.25 0 0 -.25 .75 38.75)" gradientUnits="userSpaceOnUse">
          <stop offset="0" stop-color="#fff" stop-opacity=".1" />
          <stop offset="1" stop-color="#fff" stop-opacity="0" />
        </radialGradient>
        <path
          d="M23.895 27.572v87.667c0 4.133 3.381 7.514 7.514 7.514h95.182c4.133 0 7.514-3.381 7.514-7.514V27.572H23.895zm67.629 20.039H66.476a5.009 5.009 0 0 1-5.01-5.01 5.009 5.009 0 0 1 5.01-5.01h25.048a5.009 5.009 0 0 1 5.01 5.01 5.01 5.01 0 0 1-5.01 5.01z"
          fill="url(#SVGID_17_)" />
        <path d="M18.885 15.048h120.23v120.23H18.885V15.048z" fill="none" />
      </g>
    </g>
  </g>
</svg>